<?xml version="1.0" standalone="no"?>
<!DOCTYPE svg PUBLIC "-//W3C//DTD SVG 20010904//EN"
 "http://www.w3.org/TR/2001/REC-SVG-20010904/DTD/svg10.dtd">
<svg version="1.0" xmlns="http://www.w3.org/2000/svg"
 width="793.000000pt" height="963.000000pt" viewBox="0 0 793.000000 963.000000"
 preserveAspectRatio="xMidYMid meet">

<g transform="translate(0.000000,963.000000) scale(0.100000,-0.100000)"
fill="#ffffff" stroke="none">
<path d="M2742 3138 c-11 -23 -36 -78 -56 -120 -39 -82 -122 -332 -155 -463
-49 -197 -88 -456 -97 -645 l-7 -128 69 -45 c153 -99 529 -234 829 -298 189
-40 666 -109 681 -97 23 17 75 150 119 303 40 142 67 247 186 735 34 141 61
346 52 392 -13 64 -160 133 -502 237 -318 96 -565 143 -821 155 -69 4 -159 9
-202 12 l-76 6 -20 -44z"/>
</g>
</svg>
