<?xml version="1.0" standalone="no"?>
<!DOCTYPE svg PUBLIC "-//W3C//DTD SVG 20010904//EN"
 "http://www.w3.org/TR/2001/REC-SVG-20010904/DTD/svg10.dtd">
<svg version="1.0" xmlns="http://www.w3.org/2000/svg"
 width="793.000000pt" height="963.000000pt" viewBox="0 0 793.000000 963.000000"
 preserveAspectRatio="xMidYMid meet">

<g transform="translate(0.000000,963.000000) scale(0.100000,-0.100000)"
fill="#ffffff" stroke="none">
<path d="M3545 8553 c-163 -7 -483 -34 -515 -43 -19 -5 -96 -18 -170 -29 -74
-11 -175 -33 -225 -50 -102 -33 -156 -48 -235 -65 -60 -13 -214 -98 -236 -131
-7 -11 -17 -65 -23 -120 -6 -55 -15 -138 -21 -183 -15 -111 -7 -489 14 -607 8
-49 20 -121 26 -158 17 -106 31 -139 68 -160 32 -19 42 -19 210 -8 339 22 608
47 687 63 27 5 82 17 120 26 39 9 73 15 77 14 9 -2 152 28 263 56 44 11 103
24 130 28 l50 9 0 200 c-1 177 -20 711 -29 805 -2 19 -10 104 -17 189 -13 146
-14 153 -37 162 -13 5 -33 8 -45 7 -12 -1 -53 -3 -92 -5z"/>
</g>
</svg>
