<?xml version="1.0" standalone="no"?>
<!DOCTYPE svg PUBLIC "-//W3C//DTD SVG 20010904//EN"
 "http://www.w3.org/TR/2001/REC-SVG-20010904/DTD/svg10.dtd">
<svg version="1.0" xmlns="http://www.w3.org/2000/svg"
 width="793.000000pt" height="963.000000pt" viewBox="0 0 793.000000 963.000000"
 preserveAspectRatio="xMidYMid meet">

<g transform="translate(0.000000,963.000000) scale(0.100000,-0.100000)"
fill="#ffffff" stroke="none">
<path d="M1002 6126 c-19 -6 -37 -18 -42 -26 -8 -16 3 -346 19 -540 20 -242
41 -476 46 -490 2 -8 9 -58 15 -110 6 -52 15 -117 20 -145 15 -94 40 -218 43
-221 2 -2 55 -15 117 -29 132 -29 372 -59 620 -76 225 -15 753 -15 819 1 l49
11 6 132 c7 120 -6 560 -20 682 -21 194 -94 536 -122 574 -33 44 -181 99 -385
142 -216 45 -449 74 -757 94 -258 17 -383 18 -428 1z"/>
</g>
</svg>
