<svg version="1.0" xmlns="http://www.w3.org/2000/svg"
 width="792.000000pt" height="807.000000pt" viewBox="0 0 792.000000 807.000000"
 preserveAspectRatio="xMidYMid meet">

<g transform="translate(0.000000,807.000000) scale(0.100000,-0.100000)"
fill="#000000" stroke="none">
<path d="M3595 8050 c-49 -10 -135 -26 -190 -35 -55 -9 -149 -27 -210 -40 -60
-13 -159 -31 -220 -40 -60 -9 -141 -23 -180 -30 -38 -8 -99 -19 -135 -24 -119
-18 -284 -50 -335 -65 -27 -8 -94 -26 -147 -40 -110 -30 -243 -76 -304 -107
-37 -19 -42 -26 -48 -65 -3 -24 -3 -49 -1 -56 3 -7 7 -215 9 -463 3 -444 15
-669 51 -985 24 -210 31 -238 66 -256 16 -8 69 -23 117 -32 l87 -18 3 -42 c2
-30 8 -42 19 -42 8 0 104 -33 212 -73 225 -84 300 -105 310 -88 4 6 52 15 107
21 162 15 272 29 413 50 73 11 149 20 167 20 19 0 53 4 76 10 73 16 148 30
283 49 251 37 281 42 355 57 41 9 100 25 131 35 31 10 84 23 118 28 75 12 117
36 130 73 6 15 11 28 13 29 2 0 32 3 68 6 46 3 70 11 83 24 10 10 22 19 28 19
5 0 17 16 25 35 15 37 14 86 -21 760 -8 154 -17 345 -21 425 -5 133 -15 253
-44 524 -6 55 -13 103 -16 108 -3 4 -16 8 -29 8 -13 0 -27 5 -30 10 -3 6 -17
10 -30 10 -13 0 -27 5 -30 10 -3 6 -15 10 -26 10 -10 0 -19 4 -19 10 0 5 -18
13 -40 16 -22 4 -40 10 -40 15 0 5 -15 9 -34 9 -21 0 -36 6 -40 15 -3 9 -19
15 -41 15 -19 0 -35 5 -35 10 0 6 -13 10 -30 10 -16 0 -30 5 -30 10 0 6 -16
10 -35 10 -19 0 -35 5 -35 10 0 6 -10 10 -23 10 -13 0 -33 9 -45 20 -24 23
-42 26 -42 8 0 -9 -2 -10 -8 -2 -23 37 -210 44 -357 14z"/>
</g>
</svg>
