<?xml version="1.0" standalone="no"?>
<!DOCTYPE svg PUBLIC "-//W3C//DTD SVG 20010904//EN"
 "http://www.w3.org/TR/2001/REC-SVG-20010904/DTD/svg10.dtd">
<svg version="1.0" xmlns="http://www.w3.org/2000/svg"
 width="792.000000pt" height="807.000000pt" viewBox="0 0 792.000000 807.000000"
 preserveAspectRatio="xMidYMid meet">

<g transform="translate(0.000000,807.000000) scale(0.100000,-0.100000)"
fill="#000000" stroke="none">
<path d="M2507 2753 c-39 -44 -167 -478 -281 -953 -86 -361 -225 -1095 -210
-1110 15 -15 1137 -359 1534 -470 201 -56 370 -106 375 -110 27 -21 193 -41
545 -66 212 -15 387 -31 388 -36 2 -4 31 -8 65 -8 l62 0 18 49 c9 26 100 462
202 967 214 1065 192 960 209 976 10 9 10 15 2 23 -7 5 -23 20 -37 33 -33 29
-205 91 -574 206 -316 99 -508 143 -1715 396 -234 49 -443 96 -465 104 -54 20
-99 20 -118 -1z"/>
</g>
</svg>
