<?xml version="1.0" standalone="no"?>
<!DOCTYPE svg PUBLIC "-//W3C//DTD SVG 20010904//EN"
 "http://www.w3.org/TR/2001/REC-SVG-20010904/DTD/svg10.dtd">
<svg version="1.0" xmlns="http://www.w3.org/2000/svg"
 width="792.000000pt" height="807.000000pt" viewBox="0 0 792.000000 807.000000"
 preserveAspectRatio="xMidYMid meet">

<g transform="translate(0.000000,807.000000) scale(0.100000,-0.100000)"
fill="#000000" stroke="none">
<path d="M686 5744 c-48 -17 -119 -75 -438 -357 -226 -200 -248 -222 -248
-251 0 -139 98 -1113 164 -1631 24 -192 44 -371 43 -398 0 -26 2 -49 4 -50 2
-2 472 -11 1043 -19 l1039 -14 324 153 c179 84 331 153 339 153 17 0 16 -9 14
160 -1 74 -8 180 -16 235 -8 55 -28 267 -44 470 -28 347 -116 1255 -122 1260
-2 1 -219 36 -483 78 -484 77 -574 90 -1190 172 -187 25 -351 47 -365 50 -14
2 -43 -3 -64 -11z"/>
</g>
</svg>
