<?xml version="1.0" standalone="no"?>
<!DOCTYPE svg PUBLIC "-//W3C//DTD SVG 20010904//EN"
 "http://www.w3.org/TR/2001/REC-SVG-20010904/DTD/svg10.dtd">
<svg version="1.0" xmlns="http://www.w3.org/2000/svg"
 width="793.000000pt" height="963.000000pt" viewBox="0 0 793.000000 963.000000"
 preserveAspectRatio="xMidYMid meet">

<g transform="translate(0.000000,963.000000) scale(0.100000,-0.100000)"
fill="#000000" stroke="none">
<path d="M3605 8860 c-49 -10 -135 -26 -190 -35 -55 -9 -149 -27 -210 -40 -60
-13 -159 -31 -220 -40 -60 -9 -141 -23 -180 -30 -38 -8 -99 -19 -135 -24 -119
-18 -284 -50 -335 -65 -27 -8 -94 -26 -147 -40 -110 -30 -243 -76 -304 -107
-37 -19 -42 -26 -48 -65 -3 -24 -3 -49 -1 -56 3 -7 7 -215 9 -463 4 -443 16
-672 51 -985 24 -210 31 -238 66 -256 16 -8 69 -23 117 -32 l87 -18 3 -42 c2
-30 8 -42 19 -42 8 0 104 -33 212 -73 225 -84 300 -105 310 -88 4 6 52 15 107
21 162 15 272 29 413 50 73 11 149 20 167 20 19 0 53 4 76 10 73 16 148 30
283 49 251 37 281 42 355 57 41 9 100 25 131 35 31 10 84 23 118 28 75 12 117
36 130 73 6 15 11 28 13 29 2 0 32 3 68 6 46 3 70 11 83 24 10 10 22 19 28 19
5 0 17 16 25 35 15 37 14 86 -21 760 -8 154 -17 345 -21 425 -5 133 -15 253
-44 524 -6 55 -13 103 -16 108 -3 4 -16 8 -29 8 -13 0 -27 5 -30 10 -3 6 -17
10 -30 10 -13 0 -27 5 -30 10 -3 6 -15 10 -26 10 -10 0 -19 4 -19 10 0 5 -18
13 -40 16 -22 4 -40 10 -40 15 0 5 -15 9 -34 9 -21 0 -36 6 -40 15 -3 9 -19
15 -41 15 -19 0 -35 5 -35 10 0 6 -13 10 -30 10 -16 0 -30 5 -30 10 0 6 -16
10 -35 10 -19 0 -35 5 -35 10 0 6 -10 10 -23 10 -13 0 -33 9 -45 20 -24 23
-42 26 -42 8 0 -9 -2 -10 -8 -2 -23 37 -210 44 -357 14z"/>
<path d="M696 6554 c-48 -17 -119 -75 -438 -357 -226 -200 -248 -222 -248
-251 0 -139 98 -1113 164 -1631 24 -192 44 -371 43 -398 0 -26 2 -49 4 -50 2
-2 472 -11 1043 -19 l1039 -14 324 153 c179 84 331 153 339 153 17 0 16 -9 14
160 -1 74 -8 180 -16 235 -8 55 -28 267 -44 470 -28 347 -116 1255 -122 1260
-2 1 -219 36 -483 78 -484 77 -574 90 -1190 172 -187 25 -351 47 -365 50 -14
2 -43 -3 -64 -11z"/>
<path d="M2517 3563 c-39 -44 -167 -478 -281 -953 -86 -361 -225 -1095 -210
-1110 15 -15 1137 -359 1534 -470 201 -56 370 -106 375 -110 27 -21 193 -41
545 -66 212 -15 387 -31 388 -36 2 -4 31 -8 65 -8 l62 0 18 49 c9 26 100 462
202 967 214 1065 192 960 209 976 10 9 10 15 2 23 -7 5 -23 20 -37 33 -33 29
-205 91 -574 206 -316 99 -508 143 -1715 396 -234 49 -443 96 -465 104 -54 20
-99 20 -118 -1z"/>
</g>
</svg>
