<svg version="1.0" xmlns="http://www.w3.org/2000/svg"
 width="2227.000000pt" height="1340.000000pt" viewBox="0 0 2227.000000 1340.000000"
 preserveAspectRatio="xMidYMid meet">
<g transform="translate(0.000000,1340.000000) scale(0.100000,-0.100000)"
fill="#000000" stroke="none">
<path d="M7065 12959 c-967 -12 -2485 -35 -3830 -60 -1753 -32 -2108 -42
-2235 -64 -47 -8 -101 -17 -120 -21 -20 -3 -60 -18 -90 -32 -50 -25 -56 -31
-72 -79 -39 -124 -54 -320 -78 -1048 -6 -170 -15 -398 -20 -505 -6 -107 -15
-393 -20 -635 -6 -242 -15 -593 -20 -780 -12 -442 -28 -1519 -34 -2345 -6
-755 9 -2784 24 -3350 5 -212 15 -567 20 -790 15 -565 29 -1000 40 -1235 6
-110 12 -294 15 -410 13 -538 41 -850 86 -949 35 -75 213 -112 619 -126 712
-26 3826 -79 5805 -100 3100 -31 7475 -19 10295 30 2235 38 3493 65 3698 81
164 12 260 31 334 65 48 23 59 33 72 68 49 134 58 254 96 1336 47 1337 69
2301 75 3355 3 462 7 928 9 1035 6 370 -14 2547 -29 3125 -8 319 -20 767 -25
995 -5 228 -14 507 -20 620 -6 113 -17 408 -25 655 -20 599 -34 773 -71 893
-33 102 -126 140 -394 161 -74 6 -274 13 -445 16 -170 3 -512 10 -760 15
-1449 31 -3189 61 -4095 71 -1047 13 -7894 18 -8805 8z"/>
</g>
</svg>
