<svg xmlns="http://www.w3.org/2000/svg" viewBox="0 0 182 182.3"><style>.st2{fill:#fff}</style><g id="Layer_1"><path d="M162 84.3l20-19.2-7.7-18.4-26.8 1.4-11.2-12.7 1.3-26.3L119.5 1l-19.3 19.8-16.2-.5L66.3 0 47.1 7.5l1.2 26.8-12.4 12.5-26.6-2.1-8.2 18.6 19.7 18.8v16.3L0 117l7.5 18.7 26.8-1L46 146.3l-2.3 26.8 19.8 9.2L82.1 162h15.7l18.7 20.3 19.3-8.7-1.2-25.7 12.2-11.7 26.3 1.7 8.8-18.7-20.5-19.7.6-15.2zm-71 52.6a45.8 45.8 0 110-91.6 45.8 45.8 0 010 91.6z"/><circle cx="91" cy="91.2" r="28.1" fill="#020202"/></g></svg>